<svg xmlns="http://www.w3.org/2000/svg" width="130" height="40" viewBox="0 0 130 40">
    <g fill="none" fill-rule="evenodd">
        <path fill="#CCC8C5" d="M18.082 39.26l-.208.189a2.129 2.129 0 0 1-3.353-.667l-.12-.254a2.857 2.857 0 0 0-3.544-1.468l-.264.095a2.129 2.129 0 0 1-2.842-1.9l-.014-.28a2.857 2.857 0 0 0-2.712-2.712l-.28-.014a2.129 2.129 0 0 1-1.9-2.842l.095-.264a2.857 2.857 0 0 0-1.468-3.544l-.254-.12a2.129 2.129 0 0 1-.667-3.353l.189-.208a2.857 2.857 0 0 0 0-3.836l-.189-.208a2.129 2.129 0 0 1 .667-3.353l.254-.12a2.857 2.857 0 0 0 1.468-3.544l-.095-.264a2.129 2.129 0 0 1 1.9-2.842l.28-.014a2.857 2.857 0 0 0 2.712-2.712l.014-.28a2.129 2.129 0 0 1 2.842-1.9l.264.095a2.857 2.857 0 0 0 3.544-1.468l.12-.254a2.129 2.129 0 0 1 3.353-.667l.208.189a2.857 2.857 0 0 0 3.836 0l.208-.189a2.129 2.129 0 0 1 3.353.667l.12.254a2.857 2.857 0 0 0 3.544 1.468l.264-.095a2.129 2.129 0 0 1 2.842 1.9l.014.28a2.857 2.857 0 0 0 2.712 2.712l.28.014a2.129 2.129 0 0 1 1.9 2.842l-.095.264a2.857 2.857 0 0 0 1.468 3.544l.254.12a2.129 2.129 0 0 1 .667 3.353l-.189.208a2.857 2.857 0 0 0 0 3.836l.189.208a2.129 2.129 0 0 1-.667 3.353l-.254.12a2.857 2.857 0 0 0-1.468 3.544l.095.264a2.129 2.129 0 0 1-1.9 2.842l-.28.014a2.857 2.857 0 0 0-2.712 2.712l-.014.28a2.129 2.129 0 0 1-2.842 1.9l-.264-.095a2.857 2.857 0 0 0-3.544 1.468l-.12.254a2.129 2.129 0 0 1-3.353.667l-.208-.189a2.857 2.857 0 0 0-3.836 0z"/>
        <text fill="#3F3B37" font-family="Quicksand-Regular, Quicksand" font-size="16">
            <tspan x="48" y="21">Pass’Jeune</tspan>
        </text>
    </g>
</svg>
