<svg xmlns="http://www.w3.org/2000/svg" width="1024" height="1024" viewBox="0 0 1024 1024">
    <g fill="none" fill-rule="evenodd">
        <path fill="none" d="M21.333 0H1024v1024H0V21.333C0 9.551 9.551 0 21.333 0z"/>
        <circle cx="469.333" cy="501.333" r="320" fill="#50E3C2"/>
        <path fill="#80F" d="M602.792 597.664h-96.25c-2.084 0-4.063-.416-5.938-1.25-1.875-.834-3.646-2.084-5.312-3.752-1.667-1.25-2.813-2.814-3.438-4.69-.625-1.875-.937-4.064-.937-6.565V533.26h-48.125c-2.5 0-4.688-.313-6.563-.938s-3.437-1.772-4.687-3.44c-1.667-1.667-2.917-3.438-3.75-5.314a14.47 14.47 0 0 1-1.25-5.94v-96.295c0-2.084.416-4.064 1.25-5.94a27.347 27.347 0 0 1 3.125-5.315c1.666-1.667 3.437-2.918 5.312-3.752 1.875-.833 4.063-1.25 6.563-1.25h47.5v-47.522c0-2.084.416-4.064 1.25-5.94.833-1.876 2.083-3.648 3.75-5.315 1.666-1.668 3.437-2.918 5.312-3.752a14.452 14.452 0 0 1 5.938-1.25h96.25c2.083 0 4.062.416 5.937 1.25 1.875.834 3.646 2.084 5.313 3.752 1.666 1.667 2.812 3.439 3.437 5.315.625 1.876.938 3.856.938 5.94v47.522h48.125c2.083 0 4.166.417 6.25 1.25 2.083.834 3.75 2.085 5 3.752 1.666 1.668 2.916 3.44 3.75 5.315a14.47 14.47 0 0 1 1.25 5.94v96.295a14.47 14.47 0 0 1-1.25 5.94 27.347 27.347 0 0 1-3.125 5.315c-1.667 1.667-3.542 2.814-5.625 3.439a21.644 21.644 0 0 1-6.25.938h-47.5v48.147c0 2.501-.417 4.69-1.25 6.565a11.736 11.736 0 0 1-3.75 4.69c-1.667 1.668-3.438 2.918-5.313 3.752a14.452 14.452 0 0 1-5.937 1.25zm-80-80.036v47.521h63.75v-47.521c0-2.085.416-4.065 1.25-5.94a27.347 27.347 0 0 1 3.125-5.316c1.666-1.667 3.541-2.918 5.625-3.751 2.083-.834 4.166-1.25 6.25-1.25h47.5v-63.78h-47.5c-2.084 0-4.167-.417-6.25-1.25-2.084-.834-3.75-2.085-5-3.752a11.736 11.736 0 0 1-3.75-4.69c-.834-1.876-1.25-4.065-1.25-6.566v-48.147h-63.75v48.147c0 2.501-.417 4.69-1.25 6.566-.834 1.876-1.875 3.439-3.125 4.69-1.667 1.667-3.438 2.918-5.313 3.751-1.875.834-4.062 1.25-6.562 1.25h-47.5v63.78h47.5c2.5 0 4.687.417 6.562 1.25a11.733 11.733 0 0 1 4.688 3.752c1.666 1.668 2.916 3.44 3.75 5.315a14.47 14.47 0 0 1 1.25 5.94zm303.75-272.626c6.666 0 12.812 1.25 18.437 3.752 5.625 2.501 10.938 6.044 15.938 10.63 4.583 4.585 8.02 9.692 10.312 15.32 2.292 5.627 3.438 11.776 3.438 18.445v352.037c0 6.67-1.146 12.923-3.438 18.759-2.292 5.836-5.937 11.047-10.937 15.632-4.584 4.585-9.688 8.025-15.313 10.317-5.625 2.293-11.77 3.44-18.437 3.44h-543.75c-6.667 0-12.813-1.147-18.438-3.44-5.625-2.292-10.937-5.732-15.937-10.317-4.584-4.585-8.021-9.796-10.313-15.632s-3.437-12.089-3.437-18.759V293.15c0-6.67 1.145-12.818 3.437-18.446 2.292-5.627 5.938-10.734 10.938-15.32 4.583-4.585 9.687-8.128 15.312-10.629 5.625-2.501 11.771-3.752 18.438-3.752h143.75V197.48c0-6.67 1.145-12.818 3.437-18.446 2.292-5.627 5.938-10.942 10.938-15.944 4.583-4.586 9.687-8.025 15.312-10.318 5.625-2.292 11.771-3.439 18.438-3.439h160c6.666 0 12.812 1.147 18.437 3.44 5.625 2.292 10.938 5.731 15.938 10.317 4.583 5.002 8.02 10.317 10.312 15.944 2.292 5.628 3.438 11.777 3.438 18.446v47.522h143.75zm-367.5-47.522v47.522h191.25V197.48c0-2.084-.313-4.064-.938-5.94-.625-1.876-1.77-3.647-3.437-5.315-1.667-1.667-3.438-2.918-5.313-3.751a14.452 14.452 0 0 0-5.937-1.251h-160c-2.084 0-4.063.417-5.938 1.25-1.875.834-3.646 2.085-5.312 3.752-1.667 1.668-2.813 3.44-3.438 5.315-.625 1.876-.937 3.856-.937 5.94zm383.75 447.706V293.15a14.47 14.47 0 0 0-1.25-5.94c-.834-1.876-2.084-3.647-3.75-5.315-1.25-1.25-2.917-2.292-5-3.126-2.084-.834-4.167-1.25-6.25-1.25h-543.75c-2.5 0-4.688.416-6.563 1.25a27.33 27.33 0 0 0-5.312 3.126 27.347 27.347 0 0 0-3.125 5.315 14.47 14.47 0 0 0-1.25 5.94v352.037c0 2.501.416 4.69 1.25 6.566.833 1.876 2.083 3.647 3.75 5.315 1.25 1.667 2.812 2.813 4.687 3.439 1.875.625 4.063.938 6.563.938h543.75c2.083 0 4.166-.313 6.25-.938 2.083-.626 3.958-1.772 5.625-3.44a27.347 27.347 0 0 0 3.125-5.314c.833-1.876 1.25-4.065 1.25-6.566zM199.19 863.607c-7.61 10.77-24.086 14.277-36.8 7.83-12.716-6.446-16.854-20.404-9.244-31.175 36.978-52.34 95.794-61.923 163.643-28.74 42.167 20.623 72.521 11.793 102.473-32.154 7.409-10.87 23.818-14.596 36.651-8.32 12.833 6.277 17.23 20.178 9.821 31.049-44.007 64.57-106.402 82.722-175.775 48.793-43.69-21.368-69.679-17.134-90.768 12.717z"/>
    </g>
</svg>
