<svg xmlns="http://www.w3.org/2000/svg" width="1024" height="1024" viewBox="0 0 1024 1024">
    <g fill="none" fill-rule="evenodd">
        <path fill="none" d="M0 0h1024v1024H0z"/>
        <circle cx="469.333" cy="544" r="320" fill="#FBE900"/>
        <path fill="#0076FF" d="M847.167 271.338h.625c3.75 3.737 7.187 8.097 10.312 13.08 3.125 4.983 6.146 10.797 9.063 17.44 2.5 6.23 4.375 12.25 5.625 18.064s1.875 11.42 1.875 16.818v3.737c0 2.076-.209 5.19-.625 9.343a3341.65 3341.65 0 0 1-1.563 13.703 995.101 995.101 0 0 1-2.187 17.44 795.714 795.714 0 0 1-4.375 21.49 1213.285 1213.285 0 0 1-5.625 24.603c-2.5 8.305-5.313 17.129-8.438 26.472-3.125 9.343-6.77 18.79-10.937 28.34-2.5 5.814-5 11.42-7.5 16.818a293.877 293.877 0 0 1-8.125 16.195 392.76 392.76 0 0 1-9.063 15.883 1653.926 1653.926 0 0 1-9.687 15.883 368.701 368.701 0 0 1-10.313 14.638 360.857 360.857 0 0 1-10.937 14.014 197.576 197.576 0 0 1-11.563 14.015c-3.958 4.36-8.02 8.824-12.187 13.392a275.854 275.854 0 0 1-15.625 15.571 613.148 613.148 0 0 1-16.875 14.95 1325.277 1325.277 0 0 1-17.813 13.702 256.078 256.078 0 0 1-19.062 13.08 438.85 438.85 0 0 1-19.375 12.147 243.504 243.504 0 0 1-20.625 10.9 291.86 291.86 0 0 1-21.563 10.277 706.286 706.286 0 0 1-22.187 9.032 382.861 382.861 0 0 1-21.563 8.097 392.337 392.337 0 0 1-22.187 6.852 401.044 401.044 0 0 1-21.25 5.606l-21.25 4.983a876.05 876.05 0 0 1-20.938 3.425 637.227 637.227 0 0 1-20.937 2.803c-6.667.83-13.438 1.35-20.313 1.558-6.875.207-13.854.311-20.937.311-13.75 0-26.667-.623-38.75-1.869-12.084-1.245-23.542-2.906-34.375-4.983-10.417-2.491-20.104-5.086-29.063-7.785-8.958-2.7-17.187-5.502-24.687-8.41a2403.281 2403.281 0 0 1-19.063-9.03c-5.625-2.7-10.312-5.295-14.062-7.787l-13.125-8.097c-4.167-3.737-8.125-7.994-11.875-12.769s-7.292-10.07-10.625-15.883c-2.917-6.229-5.104-12.25-6.563-18.063-1.458-5.814-2.187-11.627-2.187-17.44v-3.738c0-2.076.208-5.19.625-9.343.416-4.153.937-8.824 1.562-14.015.625-5.19 1.563-11.108 2.813-17.752.833-6.643 2.187-13.806 4.062-21.489 1.875-7.682 4.063-15.675 6.563-23.98 2.083-8.72 4.895-17.752 8.437-27.095a624.284 624.284 0 0 1 11.563-28.34 257.487 257.487 0 0 1 8.125-17.13 1196.286 1196.286 0 0 1 8.75-16.506 244.269 244.269 0 0 1 9.375-15.883 250.323 250.323 0 0 1 10.625-15.26 237.578 237.578 0 0 1 10.625-14.638 614.189 614.189 0 0 1 11.875-14.637 348.07 348.07 0 0 1 11.875-13.703 194.675 194.675 0 0 1 13.125-13.08 409.932 409.932 0 0 1 16.875-15.884 242.542 242.542 0 0 1 18.125-14.637 471.764 471.764 0 0 1 18.437-13.703 283.103 283.103 0 0 1 20.313-13.08 332.202 332.202 0 0 1 20.625-11.835 1059.655 1059.655 0 0 1 21.875-11.212c7.5-3.322 15.104-6.54 22.812-9.654a782.826 782.826 0 0 1 23.438-9.032 534.054 534.054 0 0 1 23.75-8.097 692.942 692.942 0 0 1 23.125-6.852c7.916-2.491 15.625-4.568 23.125-6.229a508.966 508.966 0 0 1 21.875-4.36c7.5-1.66 14.791-3.01 21.875-4.048a744.004 744.004 0 0 1 21.25-2.803c7.083-.416 14.062-.83 20.937-1.246a336.909 336.909 0 0 1 20.313-.623c12.916 0 25.104.623 36.562 1.869 11.459 1.245 21.98 2.906 31.563 4.983 9.583 2.491 18.333 5.086 26.25 7.785 7.916 2.7 15 5.502 21.25 8.41 6.25 2.49 11.77 5.086 16.562 7.785 4.792 2.7 8.646 5.295 11.563 7.786 3.333 2.492 5.833 4.464 7.5 5.917 1.666 1.454 2.5 2.388 2.5 2.803zm-35.625 199.319h-.625a754.868 754.868 0 0 0 10.312-26.472c3.125-8.513 5.73-16.714 7.813-24.603a1711.786 1711.786 0 0 0 5.625-23.047c1.666-7.059 2.916-13.495 3.75-19.309 1.25-6.228 2.083-11.73 2.5-16.506.416-4.775.833-9.031 1.25-12.769 0-3.737.104-6.54.312-8.408l.313-2.803c0-1.246-.104-2.388-.313-3.426-.208-1.038-.312-2.18-.312-3.426-.417-1.66-.73-3.114-.938-4.36a24.525 24.525 0 0 0-.937-3.737c-2.917.415-6.042.83-9.375 1.245-3.334.416-7.084.831-11.25 1.246-4.167.415-8.75 1.142-13.75 2.18-5 1.038-10.417 1.973-16.25 2.803a3906.88 3906.88 0 0 1-17.813 4.049c-6.458 1.453-13.229 3.218-20.312 5.294a379.722 379.722 0 0 0-23.125 5.918 7525.166 7525.166 0 0 1-25 7.163c-.417.415-.834.622-1.25.622h-1.25c-.417.416-.73.623-.938.623h-.937c-2.084 0-3.854-.311-5.313-.934a88.6 88.6 0 0 1-4.687-2.18 56.054 56.054 0 0 1-3.438-3.737c-1.042-1.246-1.77-2.907-2.187-4.983-.417-2.076-.625-4.049-.625-5.918 0-1.868.625-3.84 1.875-5.917.833-2.076 2.083-3.737 3.75-4.983 1.666-1.246 3.541-2.284 5.625-3.114a967.712 967.712 0 0 0 21.562-6.229 611.655 611.655 0 0 1 19.688-5.606c6.25-1.66 12.291-3.218 18.125-4.671 5.833-1.454 11.458-2.595 16.875-3.426 5.416-1.246 10.52-2.388 15.312-3.426a829.429 829.429 0 0 1 13.438-2.803c4.583-.415 8.75-.934 12.5-1.557 3.75-.623 7.5-1.35 11.25-2.18a179.37 179.37 0 0 0-4.375-2.803 262.303 262.303 0 0 1-6.25-4.049 75.566 75.566 0 0 0-8.125-4.671c-2.917-1.453-6.25-3.01-10-4.672-2.5-1.245-5.209-2.387-8.125-3.425a637.823 637.823 0 0 1-9.375-3.426 127.635 127.635 0 0 0-10.625-3.426 166.616 166.616 0 0 0-11.875-2.803 765.189 765.189 0 0 0-13.125-2.491 150.507 150.507 0 0 0-14.375-1.869c-5-.415-10.313-.83-15.938-1.246a233.422 233.422 0 0 0-17.187-.623c-6.25 0-12.604.208-19.063.623a282.108 282.108 0 0 0-19.062 1.869 218.003 218.003 0 0 0-20 2.18 1066.865 1066.865 0 0 0-20.625 3.426 462.702 462.702 0 0 0-20.625 4.36 568.742 568.742 0 0 0-21.875 5.606 1224.373 1224.373 0 0 0-21.563 6.54 355.316 355.316 0 0 0-22.187 7.786c-13.75 4.567-26.875 9.758-39.375 15.571a495.19 495.19 0 0 0-36.25 18.687c-11.667 6.644-22.709 13.807-33.125 21.489a488.514 488.514 0 0 0-30 23.98 300.276 300.276 0 0 0-27.188 26.784 448.21 448.21 0 0 0-24.062 29.275 374.257 374.257 0 0 0-20.938 32.389 391.924 391.924 0 0 0-17.812 34.88 213.508 213.508 0 0 0-7.813 17.441 191.325 191.325 0 0 0-5.937 17.44 163.149 163.149 0 0 0-5.313 16.195 891.78 891.78 0 0 0-4.062 15.572 162.162 162.162 0 0 0-3.125 13.703 757.948 757.948 0 0 1-2.5 13.08c-.417 4.153-.938 7.89-1.563 11.212s-.937 6.436-.937 9.343c2.916-3.737 6.354-7.786 10.312-12.146 3.959-4.36 8.021-8.824 12.188-13.392a925.294 925.294 0 0 1 14.062-14.949c4.792-4.983 10.104-9.965 15.938-14.948a433.699 433.699 0 0 1 17.187-16.195 2108.832 2108.832 0 0 1 19.063-16.818 694.766 694.766 0 0 1 21.25-16.506c7.5-5.606 15.208-11.315 23.125-17.129a13.767 13.767 0 0 1 5.625-2.491 15.834 15.834 0 0 1 6.25 0c2.083 0 4.062.623 5.937 1.868 1.875 1.246 3.438 2.7 4.688 4.36 1.25 2.077 2.083 4.05 2.5 5.918.416 1.868.416 3.84 0 5.917-.417 2.492-1.146 4.568-2.188 6.229-1.042 1.66-2.396 3.114-4.062 4.36-10 7.06-19.48 14.015-28.438 20.866-8.958 6.852-17.396 13.807-25.312 20.866a1241.736 1241.736 0 0 0-22.188 20.244c-6.875 6.436-13.229 12.768-19.062 18.997-6.25 6.229-11.875 12.042-16.875 17.44-5 5.399-9.584 10.797-13.75 16.195a892.562 892.562 0 0 0-11.25 13.703c-3.334 4.153-6.25 7.89-8.75 11.212.833 1.661 1.666 3.114 2.5 4.36l2.5 3.737 3.125 3.115c.833.83 1.875 1.66 3.125 2.491 0 .415.833 1.142 2.5 2.18l7.5 4.672c3.333 2.076 7.5 4.36 12.5 6.851 5 2.492 10.833 4.983 17.5 7.475 6.666 2.491 13.958 4.879 21.875 7.163 7.916 2.284 16.666 4.671 26.25 7.163 9.583 2.076 19.791 3.633 30.625 4.671 10.833 1.039 22.5 1.558 35 1.558 6.25 0 12.5-.208 18.75-.623 6.25-.416 12.708-.83 19.375-1.246 6.25-.83 12.604-1.765 19.062-2.803a788.378 788.378 0 0 0 19.688-3.426 344.325 344.325 0 0 0 20-4.36 359.734 359.734 0 0 0 20-5.606 242.877 242.877 0 0 0 20-5.917c6.666-2.284 13.541-4.88 20.625-7.786a352.38 352.38 0 0 0 36.25-15.572 439.116 439.116 0 0 0 33.75-18.686 361.392 361.392 0 0 0 31.25-21.489c10-7.682 19.375-15.675 28.125-23.98a279.574 279.574 0 0 0 25.625-26.472 356.755 356.755 0 0 0 22.5-29.587c7.083-9.966 13.645-20.45 19.687-31.455 6.042-11.004 11.771-22.527 17.188-34.57zm-336.875 41.732a14.5 14.5 0 0 1-5.938-1.245c-1.875-.83-3.646-2.077-5.312-3.738-1.667-1.245-2.813-2.906-3.438-4.983a21.512 21.512 0 0 1-.937-6.228c0-6.644-1.25-12.77-3.75-18.375-2.5-5.606-6.042-10.693-10.625-15.26-4.584-4.568-9.688-8.098-15.313-10.59-5.625-2.49-11.77-3.736-18.437-3.736-2.5 0-4.688-.312-6.563-.935s-3.437-1.765-4.687-3.426c-1.667-1.66-2.917-3.425-3.75-5.294a14.366 14.366 0 0 1-1.25-5.917c0-2.492.416-4.672 1.25-6.54.833-1.869 2.083-3.634 3.75-5.295 1.25-1.245 2.812-2.284 4.687-3.114 1.875-.83 4.063-1.246 6.563-1.246 5.416 0 10.729.52 15.937 1.557 5.209 1.038 10.104 2.596 14.688 4.672 5 2.076 9.583 4.568 13.75 7.474 4.166 2.907 8.125 6.229 11.875 9.966a64.264 64.264 0 0 1 10 11.212c2.916 4.152 5.416 8.72 7.5 13.703a80.587 80.587 0 0 1 4.687 15.26 80.524 80.524 0 0 1 1.563 15.884c0 2.076-.417 4.152-1.25 6.228-.834 2.077-2.084 3.738-3.75 4.983-1.667 1.661-3.438 2.907-5.313 3.738a14.5 14.5 0 0 1-5.937 1.245zM539.042 480c-2.5 0-4.688-.311-6.563-.934s-3.437-1.765-4.687-3.426c-1.667-1.661-2.917-3.426-3.75-5.295a14.367 14.367 0 0 1-1.25-5.917c0-6.644-1.146-12.769-3.438-18.374-2.292-5.606-5.937-10.9-10.937-15.884-4.584-4.567-9.688-7.993-15.313-10.277-5.625-2.284-11.77-3.426-18.437-3.426a14.5 14.5 0 0 1-5.938-1.246c-1.875-.83-3.646-2.076-5.312-3.737-1.667-1.246-2.813-2.803-3.438-4.671-.625-1.869-.937-4.049-.937-6.54 0-2.077.312-4.05.937-5.918.625-1.868 1.771-3.633 3.438-5.294a27.353 27.353 0 0 1 5.312-3.115 14.5 14.5 0 0 1 5.938-1.245c5.416 0 10.729.519 15.937 1.557a81.271 81.271 0 0 1 15.313 4.671c4.583 2.077 9.062 4.568 13.437 7.475a110.865 110.865 0 0 1 12.188 9.343 130.114 130.114 0 0 1 9.375 11.835c2.916 4.152 5.416 8.72 7.5 13.703a80.587 80.587 0 0 1 4.687 15.26 80.524 80.524 0 0 1 1.563 15.883c0 2.076-.417 4.049-1.25 5.917a27.218 27.218 0 0 1-3.125 5.295c-1.667 1.66-3.438 2.803-5.313 3.426-1.875.623-3.854.934-5.937.934zm63.75-31.766c-2.084 0-4.167-.312-6.25-.935-2.084-.623-3.75-1.765-5-3.426-1.667-1.66-2.917-3.425-3.75-5.294a14.366 14.366 0 0 1-1.25-5.917c0-6.644-1.146-12.769-3.438-18.375-2.292-5.606-5.729-10.9-10.312-15.883-5-4.568-10.313-7.994-15.938-10.277-5.625-2.284-11.562-3.426-17.812-3.426-2.5 0-4.688-.416-6.563-1.246-1.875-.83-3.646-2.076-5.312-3.737-1.667-1.246-2.813-2.803-3.438-4.672-.625-1.868-.937-4.048-.937-6.54 0-2.076.312-4.049.937-5.917.625-1.869 1.771-3.634 3.438-5.295a27.353 27.353 0 0 1 5.312-3.114c1.875-.83 4.063-1.246 6.563-1.246 5.416 0 10.729.52 15.937 1.557 5.209 1.039 10.104 2.596 14.688 4.672 5 2.076 9.583 4.464 13.75 7.163 4.166 2.7 8.125 5.917 11.875 9.655a130.114 130.114 0 0 1 9.375 11.834c2.916 4.153 5.416 8.72 7.5 13.703a100.514 100.514 0 0 1 5 15.26 67.6 67.6 0 0 1 1.875 15.884c0 2.076-.417 4.048-1.25 5.917-.834 1.869-2.084 3.633-3.75 5.294-1.667 1.661-3.438 2.803-5.313 3.426-1.875.623-3.854.935-5.937.935zm63.75-31.767a14.5 14.5 0 0 1-5.938-1.246c-1.875-.83-3.646-2.076-5.312-3.737-1.667-1.246-2.813-2.803-3.438-4.671-.625-1.869-.937-4.049-.937-6.54 0-6.23-1.25-12.146-3.75-17.752-2.5-5.606-6.042-10.9-10.625-15.884-4.584-4.567-9.688-7.993-15.313-10.277-5.625-2.284-11.77-3.426-18.437-3.426-2.5 0-4.688-.415-6.563-1.245a11.725 11.725 0 0 1-4.687-3.738c-1.667-1.245-2.917-2.906-3.75-4.983-.834-2.076-1.25-4.152-1.25-6.228 0-2.077.416-4.049 1.25-5.918.833-1.868 2.083-3.633 3.75-5.294a11.725 11.725 0 0 1 4.687-3.737c1.875-.83 4.063-1.246 6.563-1.246 5.416 0 10.729.52 15.937 1.557a81.27 81.27 0 0 1 15.313 4.672c4.583 2.076 9.062 4.567 13.437 7.474s8.23 6.229 11.563 9.966c3.75 3.737 7.083 7.682 10 11.835 2.916 4.152 5.416 8.72 7.5 13.703 2.083 4.568 3.645 9.447 4.687 14.637a80.524 80.524 0 0 1 1.563 15.884c0 2.491-.417 4.671-1.25 6.54-.834 1.868-1.875 3.425-3.125 4.671-1.667 1.661-3.438 2.907-5.313 3.737-1.875.83-4.062 1.246-6.562 1.246zM199.19 255.607c-7.61 10.77-24.086 14.277-36.8 7.83-12.716-6.446-16.854-20.404-9.244-31.175 36.978-52.34 95.794-61.923 163.643-28.74 42.167 20.623 72.521 11.793 102.473-32.154 7.409-10.87 23.818-14.596 36.651-8.32 12.833 6.277 17.23 20.178 9.821 31.049-44.007 64.57-106.402 82.722-175.775 48.793-43.69-21.368-69.679-17.134-90.768 12.717zM583.19 852.94c-7.61 10.771-24.086 14.277-36.8 7.83-12.716-6.446-16.854-20.404-9.244-31.175 36.978-52.339 95.794-61.923 163.643-28.74 42.167 20.624 72.521 11.793 102.473-32.153 7.409-10.871 23.818-14.596 36.651-8.32 12.833 6.277 17.23 20.177 9.821 31.048-44.007 64.57-106.402 82.722-175.775 48.793-43.69-21.368-69.679-17.133-90.768 12.717z"/>
    </g>
</svg>
